<svg xmlns="http://www.w3.org/2000/svg" width="1280" height="640" viewBox="0 0 1280 640">
  <defs>
    <style>
      .cls-1, .cls-2 {
        fill: #e73845;
        fill-rule: evenodd;
      }

      .cls-2 {
        opacity: 0.2;
      }
    </style>
  </defs>
  <path id="crabber" class="cls-1" d="M1058.71,316.93a10.053,10.053,0,0,0-3.84-2.565,14.517,14.517,0,0,0-5.26-.877q-5.835,0-9.06,3.475-3.21,3.474-3.21,9.643V367h-16.17V299.591h16.17v9.258a22.825,22.825,0,0,1,6.27-6.888,17.5,17.5,0,0,1,10.36-3.344,22.711,22.711,0,0,1,7.98,1.331,17.738,17.738,0,0,1,6.24,3.929Zm-86.3,32.893q4.155,4.125,11.69,4.124a20.611,20.611,0,0,0,7.565-1.461,22.882,22.882,0,0,0,6.722-4.059l10.134,9.481a37.762,37.762,0,0,1-11.53,7.436,33.663,33.663,0,0,1-12.891,2.63,35,35,0,0,1-16.3-3.507,23.819,23.819,0,0,1-10.325-10.293q-3.573-6.786-3.572-16.4v-7.6q0-10,3.409-17.079a24.034,24.034,0,0,1,9.936-10.781,31.314,31.314,0,0,1,15.684-3.7,25.022,25.022,0,0,1,14.774,4.318,26.741,26.741,0,0,1,9.356,12.5q3.21,8.183,3.21,19.742V339.6H968.307Q968.7,346.124,972.409,349.823Zm23.444-21.593-0.065-.714q-0.649-7.079-3.961-10.975a11.08,11.08,0,0,0-8.9-3.9q-7.014,0-10.845,4.384c-2.354,2.691-3.609,6.435-3.794,11.2h27.562ZM933.2,364.662a22.586,22.586,0,0,1-12.4,3.312,18.479,18.479,0,0,1-10.585-3.02,17.162,17.162,0,0,1-5.715-6.539V367H888.971V272.575h15.521v35.9a21.585,21.585,0,0,1,6.2-6.643,18.076,18.076,0,0,1,10.423-3.214,21.978,21.978,0,0,1,12.241,3.312,20.646,20.646,0,0,1,7.761,9.708,40.112,40.112,0,0,1,2.662,15.424V339.79a38.793,38.793,0,0,1-2.695,15.228A20.642,20.642,0,0,1,933.2,364.662Zm-4.936-37.536q0-6.819-3.182-10.553t-8.962-3.734a13.153,13.153,0,0,0-6.3,1.4,9.261,9.261,0,0,0-3.962,4.124,14.532,14.532,0,0,0-1.363,6.559v16.755a14.32,14.32,0,0,0,1.363,6.526,9.468,9.468,0,0,0,3.962,4.124,12.892,12.892,0,0,0,6.3,1.429q5.78,0,8.962-3.637t3.182-10.325V327.126Zm-62,37.536a22.586,22.586,0,0,1-12.4,3.312,18.479,18.479,0,0,1-10.585-3.02,17.162,17.162,0,0,1-5.715-6.539V367H822.039V272.575H837.56v35.9a21.585,21.585,0,0,1,6.2-6.643,18.081,18.081,0,0,1,10.423-3.214,21.983,21.983,0,0,1,12.242,3.312,20.644,20.644,0,0,1,7.76,9.708,40.092,40.092,0,0,1,2.663,15.424V339.79a38.793,38.793,0,0,1-2.7,15.228A20.644,20.644,0,0,1,866.264,364.662Zm-4.935-37.536q0-6.819-3.182-10.553t-8.962-3.734a13.157,13.157,0,0,0-6.3,1.4,9.253,9.253,0,0,0-3.961,4.124,14.532,14.532,0,0,0-1.364,6.559v16.755a14.319,14.319,0,0,0,1.364,6.526,9.461,9.461,0,0,0,3.961,4.124,12.9,12.9,0,0,0,6.3,1.429q5.778,0,8.962-3.637t3.182-10.325V327.126Zm-66.916,33.929a11.771,11.771,0,0,1-2.5,2.633,18.89,18.89,0,0,1-6.656,3.215,32.03,32.03,0,0,1-8.508,1.071q-11.625,0-17.4-5.163t-5.78-15.683q0-10,5.845-15t17.534-5h17.469v-2.857q0-5.65-3.344-8.768t-9.449-3.117a24.48,24.48,0,0,0-7.663,1.234,23.693,23.693,0,0,0-6.754,3.442l-10.326-8.7a26.206,26.206,0,0,1,10.391-7.176,38.24,38.24,0,0,1,14.287-2.565,33.421,33.421,0,0,1,14.677,2.955,20.965,20.965,0,0,1,9.319,8.572,26.842,26.842,0,0,1,3.215,13.54V367H794.413v-5.945Zm0-21.85h-17.4q-4.611,0-6.916,1.948t-2.306,5.975a7.073,7.073,0,0,0,2.988,6.267q2.986,2.046,9.027,2.045,7.4,0,11.007-1.623t3.6-5.066v-9.546Zm-57.383-24.84a14.574,14.574,0,0,0-5.26-.877q-5.845,0-9.06,3.475t-3.214,9.643V367H703.325V299.591H719.5v9.258a22.816,22.816,0,0,1,6.267-6.888,17.5,17.5,0,0,1,10.358-3.344,22.752,22.752,0,0,1,7.988,1.331,17.678,17.678,0,0,1,6.234,3.929l-9.481,13.053A10.061,10.061,0,0,0,737.03,314.365Zm-77.974,34.744q3.928,3.993,11.2,3.994a18.079,18.079,0,0,0,13.7-6.235l10.52,10.521a24.019,24.019,0,0,1-6.4,5.747,30.449,30.449,0,0,1-8.572,3.6,40.239,40.239,0,0,1-10.1,1.234,34.025,34.025,0,0,1-16.106-3.539,23.719,23.719,0,0,1-10.195-10.326q-3.507-6.784-3.507-16.4v-9.156a34.642,34.642,0,0,1,3.507-16.2,23.611,23.611,0,0,1,10.195-10.228,34.291,34.291,0,0,1,16.106-3.507,39.505,39.505,0,0,1,10.163,1.266,30.612,30.612,0,0,1,8.572,3.669,23.084,23.084,0,0,1,6.332,5.845l-10.52,9.871a18.275,18.275,0,0,0-6.235-4.286,19.179,19.179,0,0,0-7.468-1.494q-7.209,0-11.17,3.929t-3.961,11.138v9.156Q655.127,345.115,659.056,349.109Z"/>
  <path id="_.net" data-name=".net" class="cls-2" d="M1156.21,359.524a1.783,1.783,0,0,0,1.53.71h2.87v7.939h-4.43q-4.545,0-6.66-2.409t-2.11-7.124V339.26h-3.71v-7.245h3.71v-10.47h8.28v10.47h4.92v7.245h-4.92V357.5A3.37,3.37,0,0,0,1156.21,359.524Zm-35.98-.694a8.477,8.477,0,0,0,6.24,2.2,11.026,11.026,0,0,0,4.04-.78,12.223,12.223,0,0,0,3.58-2.167l5.41,5.061a20.12,20.12,0,0,1-6.15,3.97,17.973,17.973,0,0,1-6.88,1.4,18.729,18.729,0,0,1-8.71-1.872,12.732,12.732,0,0,1-5.51-5.5,18.6,18.6,0,0,1-1.9-8.754v-4.056a20.762,20.762,0,0,1,1.82-9.117,12.815,12.815,0,0,1,5.3-5.755,16.686,16.686,0,0,1,8.37-1.976,13.34,13.34,0,0,1,7.89,2.305,14.261,14.261,0,0,1,4.99,6.674,28.719,28.719,0,0,1,1.72,10.539v2.357h-22.4A8.039,8.039,0,0,0,1120.23,358.83Zm12.51-11.527-0.03-.381a10.285,10.285,0,0,0-2.12-5.859,5.913,5.913,0,0,0-4.75-2.08,7.3,7.3,0,0,0-5.79,2.34,9.41,9.41,0,0,0-2.02,5.98h14.71Zm-36.67-1.109a6.85,6.85,0,0,0-1.73-4.992,6.6,6.6,0,0,0-4.93-1.768,6.415,6.415,0,0,0-4.71,1.646,6.264,6.264,0,0,0-1.66,4.663V368h-8.29V332.015h8.29v4.962a12.057,12.057,0,0,1,3.38-3.749,9.932,9.932,0,0,1,5.84-1.733q5.745,0,8.92,3.83t3.18,10.834V368h-8.29V346.194Zm-36.68,13.347h8.46V368h-8.46v-8.459Z"/>
  <path id="claw_2" data-name="claw 2" class="cls-1" d="M894,32.115A146.523,146.523,0,0,1,784.628,145.208c-0.108-.28-0.229-0.553-0.338-0.832a285.186,285.186,0,0,1-19.9,32.391,283.011,283.011,0,0,1-167.969,112.31c0.131,3.521.212,7.054,0.212,10.607a282.094,282.094,0,0,1-15.951,93.767c89.828-23.182,185.23,12.142,238.154,88.009a337.357,337.357,0,0,0-233.786-16.667,208.569,208.569,0,0,1,107.5,146.93A316.119,316.119,0,0,0,497.83,505.917a141.277,141.277,0,0,1,65.626,126.075,213.6,213.6,0,0,0-112.838-99.67q-8.5,11.541-16.55,23.422a284.629,284.629,0,0,1-242.136,0q-8.037-11.889-16.55-23.422a213.6,213.6,0,0,0-112.851,99.7A141.283,141.283,0,0,1,128.1,505.927,316.12,316.12,0,0,0-66.535,611.711,208.553,208.553,0,0,1,40.97,464.8a337.36,337.36,0,0,0-233.8,16.662c52.925-75.867,148.327-111.191,238.155-88.009a282.089,282.089,0,0,1-15.951-93.767c0-3.553.08-7.086,0.211-10.607a283.013,283.013,0,0,1-167.968-112.31,285.186,285.186,0,0,1-19.9-32.391c-0.11.279-.23,0.552-0.338,0.832A146.523,146.523,0,0,1-268,32.115,146.363,146.363,0,0,1-188.026-129.01,162.6,162.6,0,0,0-218.017-49.9c-1.34,13.594-.84,29.74,2.542,48.48,7.8,43.246,27.844,70.318,38.791,77.29,8.758,5.578,21.268,10.312,39.246,11.435a94.771,94.771,0,0,0,40.372-6.34c0.136,0.226.279,0.45,0.415,0.677A109,109,0,0,0-38.572-15.379,109.921,109.921,0,0,1-27.98,14.127a109.966,109.966,0,0,1-40.344,108.89A428.013,428.013,0,0,0,42.009,223.475a552.426,552.426,0,0,1,79.339-36.427,52.135,52.135,0,0,0,98.321-24.071c0-.655-0.025-1.3-0.049-1.953a560.767,560.767,0,0,1,186.755.207c-0.019.581-.044,1.16-0.044,1.746a52.139,52.139,0,0,0,98.13,24.444,552.554,552.554,0,0,1,78.959,36.414A428.01,428.01,0,0,0,694.325,123.017a109.937,109.937,0,0,1-29.753-138.4,109,109,0,0,0,58.079,97.023c0.137-.226.279-0.45,0.415-0.677a94.771,94.771,0,0,0,40.372,6.34c17.978-1.123,30.488-5.857,39.246-11.435,10.947-6.972,30.987-34.043,38.791-77.29,3.382-18.741,3.882-34.887,2.542-48.482a162.6,162.6,0,0,0-29.992-79.11A146.362,146.362,0,0,1,894,32.115ZM457.845,206.53a41.738,41.738,0,1,1,41.817-41.738A41.778,41.778,0,0,1,457.845,206.53Zm-289.69,0a41.738,41.738,0,1,1,41.817-41.738A41.778,41.778,0,0,1,168.155,206.53Z"/>
</svg>
