<svg xmlns="http://www.w3.org/2000/svg" width="1280" height="640"><defs><style>.prefix__cls-1{fill:#e73845;fill-rule:evenodd}</style></defs><path id="prefix__crabber" class="prefix__cls-1" d="M1058.71 316.93a10.053 10.053 0 00-3.84-2.565 14.517 14.517 0 00-5.26-.877q-5.835 0-9.06 3.475-3.21 3.474-3.21 9.643V367h-16.17v-67.409h16.17v9.258a22.825 22.825 0 016.27-6.888 17.5 17.5 0 0110.36-3.344 22.711 22.711 0 017.98 1.331 17.738 17.738 0 016.24 3.929zm-86.3 32.893q4.155 4.125 11.69 4.124a20.611 20.611 0 007.565-1.461 22.882 22.882 0 006.722-4.059l10.134 9.481a37.762 37.762 0 01-11.53 7.436 33.663 33.663 0 01-12.891 2.63 35 35 0 01-16.3-3.507 23.819 23.819 0 01-10.325-10.293q-3.573-6.786-3.572-16.4v-7.6q0-10 3.409-17.079a24.034 24.034 0 019.936-10.781 31.314 31.314 0 0115.684-3.7 25.022 25.022 0 0114.774 4.318 26.741 26.741 0 019.356 12.5q3.21 8.183 3.21 19.742v4.426h-41.965q.393 6.524 4.102 10.223zm23.444-21.593l-.065-.714q-.649-7.079-3.961-10.975a11.08 11.08 0 00-8.9-3.9q-7.014 0-10.845 4.384c-2.354 2.691-3.609 6.435-3.794 11.2h27.562zM933.2 364.662a22.586 22.586 0 01-12.4 3.312 18.479 18.479 0 01-10.585-3.02 17.162 17.162 0 01-5.715-6.539V367h-15.529v-94.425h15.521v35.9a21.585 21.585 0 016.2-6.643 18.076 18.076 0 0110.423-3.214 21.978 21.978 0 0112.241 3.312 20.646 20.646 0 017.761 9.708 40.112 40.112 0 012.662 15.424v12.728a38.793 38.793 0 01-2.695 15.228 20.642 20.642 0 01-7.884 9.644zm-4.936-37.536q0-6.819-3.182-10.553t-8.962-3.734a13.153 13.153 0 00-6.3 1.4 9.261 9.261 0 00-3.962 4.124 14.532 14.532 0 00-1.363 6.559v16.755a14.32 14.32 0 001.363 6.526 9.468 9.468 0 003.962 4.124 12.892 12.892 0 006.3 1.429q5.78 0 8.962-3.637t3.182-10.325v-12.668zm-62 37.536a22.586 22.586 0 01-12.4 3.312 18.479 18.479 0 01-10.585-3.02 17.162 17.162 0 01-5.715-6.539V367h-15.525v-94.425h15.521v35.9a21.585 21.585 0 016.2-6.643 18.081 18.081 0 0110.423-3.214 21.983 21.983 0 0112.242 3.312 20.644 20.644 0 017.76 9.708 40.092 40.092 0 012.663 15.424v12.728a38.793 38.793 0 01-2.7 15.228 20.644 20.644 0 01-7.884 9.644zm-4.935-37.536q0-6.819-3.182-10.553t-8.962-3.734a13.157 13.157 0 00-6.3 1.4 9.253 9.253 0 00-3.961 4.124 14.532 14.532 0 00-1.364 6.559v16.755a14.319 14.319 0 001.364 6.526 9.461 9.461 0 003.961 4.124 12.9 12.9 0 006.3 1.429q5.778 0 8.962-3.637t3.182-10.325v-12.668zm-66.916 33.929a11.771 11.771 0 01-2.5 2.633 18.89 18.89 0 01-6.656 3.215 32.03 32.03 0 01-8.508 1.071q-11.625 0-17.4-5.163t-5.78-15.683q0-10 5.845-15t17.534-5h17.469v-2.857q0-5.65-3.344-8.768t-9.449-3.117a24.48 24.48 0 00-7.663 1.234 23.693 23.693 0 00-6.754 3.442l-10.326-8.7a26.206 26.206 0 0110.391-7.176 38.24 38.24 0 0114.287-2.565 33.421 33.421 0 0114.677 2.955 20.965 20.965 0 019.319 8.572 26.842 26.842 0 013.215 13.54V367h-14.357v-5.945zm0-21.85h-17.4q-4.611 0-6.916 1.948t-2.306 5.975a7.073 7.073 0 002.988 6.267q2.986 2.046 9.027 2.045 7.4 0 11.007-1.623t3.6-5.066v-9.546zm-57.383-24.84a14.574 14.574 0 00-5.26-.877q-5.845 0-9.06 3.475t-3.214 9.643V367h-16.171v-67.409H719.5v9.258a22.816 22.816 0 016.267-6.888 17.5 17.5 0 0110.358-3.344 22.752 22.752 0 017.988 1.331 17.678 17.678 0 016.234 3.929l-9.481 13.053a10.061 10.061 0 00-3.836-2.565zm-77.974 34.744q3.928 3.993 11.2 3.994a18.079 18.079 0 0013.7-6.235l10.52 10.521a24.019 24.019 0 01-6.4 5.747 30.449 30.449 0 01-8.572 3.6 40.239 40.239 0 01-10.1 1.234 34.025 34.025 0 01-16.106-3.539 23.719 23.719 0 01-10.195-10.326q-3.507-6.784-3.507-16.4v-9.156a34.642 34.642 0 013.507-16.2 23.611 23.611 0 0110.195-10.228 34.291 34.291 0 0116.106-3.507 39.505 39.505 0 0110.163 1.266 30.612 30.612 0 018.572 3.669 23.084 23.084 0 016.332 5.845l-10.52 9.871a18.275 18.275 0 00-6.235-4.286 19.179 19.179 0 00-7.468-1.494q-7.209 0-11.17 3.929t-3.961 11.138v9.156q.01 7.407 3.939 11.401z"/><path id="prefix____net" data-name=".net" d="M1156.21 359.524a1.783 1.783 0 001.53.71h2.87v7.939h-4.43q-4.545 0-6.66-2.409t-2.11-7.124v-19.38h-3.71v-7.245h3.71v-10.47h8.28v10.47h4.92v7.245h-4.92v18.24a3.37 3.37 0 00.52 2.024zm-35.98-.694a8.477 8.477 0 006.24 2.2 11.026 11.026 0 004.04-.78 12.223 12.223 0 003.58-2.167l5.41 5.061a20.12 20.12 0 01-6.15 3.97 17.973 17.973 0 01-6.88 1.4 18.729 18.729 0 01-8.71-1.872 12.732 12.732 0 01-5.51-5.5 18.6 18.6 0 01-1.9-8.754v-4.056a20.762 20.762 0 011.82-9.117 12.815 12.815 0 015.3-5.755 16.686 16.686 0 018.37-1.976 13.34 13.34 0 017.89 2.305 14.261 14.261 0 014.99 6.674 28.719 28.719 0 011.72 10.539v2.357h-22.4a8.039 8.039 0 002.19 5.471zm12.51-11.527l-.03-.381a10.285 10.285 0 00-2.12-5.859 5.913 5.913 0 00-4.75-2.08 7.3 7.3 0 00-5.79 2.34 9.41 9.41 0 00-2.02 5.98h14.71zm-36.67-1.109a6.85 6.85 0 00-1.73-4.992 6.6 6.6 0 00-4.93-1.768 6.415 6.415 0 00-4.71 1.646 6.264 6.264 0 00-1.66 4.663V368h-8.29v-35.985h8.29v4.962a12.057 12.057 0 013.38-3.749 9.932 9.932 0 015.84-1.733q5.745 0 8.92 3.83t3.18 10.834V368h-8.29v-21.806zm-36.68 13.347h8.46V368h-8.46v-8.459z" opacity=".2" fill="#e73845" fill-rule="evenodd"/><path id="prefix__claw_2" data-name="claw 2" class="prefix__cls-1" d="M894 32.115a146.523 146.523 0 01-109.372 113.093c-.108-.28-.229-.553-.338-.832a285.186 285.186 0 01-19.9 32.391 283.011 283.011 0 01-167.969 112.31c.131 3.521.212 7.054.212 10.607a282.094 282.094 0 01-15.951 93.767c89.828-23.182 185.23 12.142 238.154 88.009a337.357 337.357 0 00-233.786-16.667 208.569 208.569 0 01107.5 146.93 316.119 316.119 0 00-194.72-105.806 141.277 141.277 0 0165.626 126.075 213.6 213.6 0 00-112.838-99.67q-8.5 11.541-16.55 23.422a284.629 284.629 0 01-242.136 0q-8.037-11.889-16.55-23.422a213.6 213.6 0 00-112.851 99.7A141.283 141.283 0 01128.1 505.927 316.12 316.12 0 00-66.535 611.711 208.553 208.553 0 0140.97 464.8a337.36 337.36 0 00-233.8 16.662c52.925-75.867 148.327-111.191 238.155-88.009a282.089 282.089 0 01-15.951-93.767c0-3.553.08-7.086.211-10.607a283.013 283.013 0 01-167.968-112.31 285.186 285.186 0 01-19.9-32.391c-.11.279-.23.552-.338.832A146.523 146.523 0 01-268 32.115a146.363 146.363 0 0179.974-161.125 162.6 162.6 0 00-29.991 79.11c-1.34 13.594-.84 29.74 2.542 48.48 7.8 43.246 27.844 70.318 38.791 77.29 8.758 5.578 21.268 10.312 39.246 11.435a94.771 94.771 0 0040.372-6.34c.136.226.279.45.415.677a109 109 0 0058.079-97.021A109.921 109.921 0 01-27.98 14.127a109.966 109.966 0 01-40.344 108.89A428.013 428.013 0 0042.009 223.475a552.426 552.426 0 0179.339-36.427 52.135 52.135 0 0098.321-24.071c0-.655-.025-1.3-.049-1.953a560.767 560.767 0 01186.755.207c-.019.581-.044 1.16-.044 1.746a52.139 52.139 0 0098.13 24.444 552.554 552.554 0 0178.959 36.414 428.01 428.01 0 00110.905-100.818 109.937 109.937 0 01-29.753-138.4 109 109 0 0058.079 97.023c.137-.226.279-.45.415-.677a94.771 94.771 0 0040.372 6.34c17.978-1.123 30.488-5.857 39.246-11.435 10.947-6.972 30.987-34.043 38.791-77.29 3.382-18.741 3.882-34.887 2.542-48.482a162.6 162.6 0 00-29.992-79.11A146.362 146.362 0 01894 32.115zM457.845 206.53a41.738 41.738 0 1141.817-41.738 41.778 41.778 0 01-41.817 41.738zm-289.69 0a41.738 41.738 0 1141.817-41.738 41.778 41.778 0 01-41.817 41.738z"/></svg>