<svg xmlns="http://www.w3.org/2000/svg" width="1280" height="640" viewBox="0 0 1280 640">
  <defs>
    <style>
      .cls-1, .cls-2 {
        fill: #e73845;
      }

      .cls-2 {
        opacity: 0.2;
      }
    </style>
  </defs>
  <path id="crabber" class="cls-1" d="M409.414,367.974a40.239,40.239,0,0,0,10.1-1.234,30.449,30.449,0,0,0,8.572-3.6,24.019,24.019,0,0,0,6.4-5.747l-10.52-10.521a18.079,18.079,0,0,1-13.7,6.235q-7.273,0-11.2-3.994t-3.929-11.4v-9.156q0-7.209,3.961-11.138t11.17-3.929a19.179,19.179,0,0,1,7.468,1.494,18.275,18.275,0,0,1,6.235,4.286l10.52-9.871a23.084,23.084,0,0,0-6.332-5.845,30.612,30.612,0,0,0-8.572-3.669,39.505,39.505,0,0,0-10.163-1.266,34.291,34.291,0,0,0-16.106,3.507,23.611,23.611,0,0,0-10.195,10.228,34.642,34.642,0,0,0-3.507,16.2v9.156q0,9.612,3.507,16.4a23.719,23.719,0,0,0,10.195,10.326,34.025,34.025,0,0,0,16.106,3.539h0ZM443.325,367H459.5V299.591H443.325V367Zm37.537-50.07,9.481-13.053a17.678,17.678,0,0,0-6.234-3.929,22.752,22.752,0,0,0-7.988-1.331,17.5,17.5,0,0,0-10.358,3.344,24.052,24.052,0,0,0-7.631,9.384l1.364,15.261q0-6.168,3.214-9.643t9.06-3.475a14.574,14.574,0,0,1,5.26.877,10.061,10.061,0,0,1,3.832,2.565h0ZM534.413,367h14.353V323.684a26.842,26.842,0,0,0-3.215-13.54,20.965,20.965,0,0,0-9.319-8.572,33.421,33.421,0,0,0-14.677-2.955,38.24,38.24,0,0,0-14.287,2.565,26.206,26.206,0,0,0-10.391,7.176l10.326,8.7a23.693,23.693,0,0,1,6.754-3.442,24.48,24.48,0,0,1,7.663-1.234q6.1,0,9.449,3.117t3.344,8.768V367Zm-17.664.974a32.03,32.03,0,0,0,8.508-1.071,18.89,18.89,0,0,0,6.656-3.215,11.337,11.337,0,0,0,3.864-5.325l-1.364-9.612q0,3.444-3.6,5.066T519.8,355.44q-6.041,0-9.027-2.045a7.073,7.073,0,0,1-2.988-6.267q0-4.026,2.306-5.975t6.916-1.948h18.9L535,327.126H516.944q-11.689,0-17.534,5t-5.845,15q0,10.521,5.78,15.683t17.4,5.163h0Zm77.111,0a22.586,22.586,0,0,0,12.4-3.312,20.644,20.644,0,0,0,7.891-9.644,38.793,38.793,0,0,0,2.7-15.228V327.061a40.092,40.092,0,0,0-2.663-15.424,20.644,20.644,0,0,0-7.76-9.708,21.983,21.983,0,0,0-12.242-3.312,18.081,18.081,0,0,0-10.423,3.214,22.69,22.69,0,0,0-7.566,9.125l1.364,13.962a14.532,14.532,0,0,1,1.364-6.559,9.253,9.253,0,0,1,3.961-4.124,13.157,13.157,0,0,1,6.3-1.4q5.778,0,8.962,3.734t3.182,10.553V339.79q0,6.689-3.182,10.325t-8.962,3.637a12.9,12.9,0,0,1-6.3-1.429,9.461,9.461,0,0,1-3.961-4.124,14.319,14.319,0,0,1-1.364-6.526l-0.909,14.742a17.693,17.693,0,0,0,6.624,8.539,18.479,18.479,0,0,0,10.585,3.02h0ZM562.039,367H577.56V272.575H562.039V367Zm98.753,0.974a22.586,22.586,0,0,0,12.4-3.312,20.642,20.642,0,0,0,7.89-9.644,38.793,38.793,0,0,0,2.695-15.228V327.061a40.112,40.112,0,0,0-2.662-15.424,20.646,20.646,0,0,0-7.761-9.708,21.978,21.978,0,0,0-12.241-3.312,18.076,18.076,0,0,0-10.423,3.214,22.69,22.69,0,0,0-7.566,9.125l1.364,13.962a14.532,14.532,0,0,1,1.363-6.559,9.261,9.261,0,0,1,3.962-4.124,13.153,13.153,0,0,1,6.3-1.4q5.78,0,8.962,3.734t3.182,10.553V339.79q0,6.689-3.182,10.325t-8.962,3.637a12.892,12.892,0,0,1-6.3-1.429,9.468,9.468,0,0,1-3.962-4.124,14.32,14.32,0,0,1-1.363-6.526l-0.909,14.742a17.681,17.681,0,0,0,6.624,8.539,18.479,18.479,0,0,0,10.585,3.02h0ZM628.971,367h15.521V272.575H628.971V367Zm95.128,0.974a33.663,33.663,0,0,0,12.891-2.63,37.724,37.724,0,0,0,11.527-7.436l-10.131-9.481a22.882,22.882,0,0,1-6.722,4.059,20.611,20.611,0,0,1-7.565,1.461q-7.535,0-11.69-4.124t-4.156-11.787v-8.572q0-8.052,3.832-12.436t10.845-4.384a11.08,11.08,0,0,1,8.9,3.9q3.312,3.9,3.961,10.975l0.065,0.714H704.486V339.6H750.27v-4.416q0-11.559-3.215-19.742a26.72,26.72,0,0,0-9.351-12.5,25.022,25.022,0,0,0-14.774-4.318,31.314,31.314,0,0,0-15.684,3.7A24.034,24.034,0,0,0,697.31,313.1q-3.409,7.079-3.409,17.079v7.6q0,9.612,3.572,16.4A23.819,23.819,0,0,0,707.8,364.467a35,35,0,0,0,16.3,3.507h0ZM761.17,367h16.17V299.591H761.17V367Zm37.536-50.07,9.481-13.053a17.66,17.66,0,0,0-6.234-3.929,22.744,22.744,0,0,0-7.988-1.331,17.5,17.5,0,0,0-10.358,3.344,24.07,24.07,0,0,0-7.631,9.384l1.364,15.261q0-6.168,3.215-9.643t9.059-3.475a14.574,14.574,0,0,1,5.26.877,10.054,10.054,0,0,1,3.832,2.565h0Z"/>
  <path id="_.net" data-name=".net" class="cls-2" d="M799.386,368h8.459v-8.459h-8.459V368Zm15.364,0h8.286V332.015H814.75V368Zm21.321,0h8.286V346.159q0-7-3.172-10.834t-8.927-3.83a9.938,9.938,0,0,0-5.842,1.733,12.942,12.942,0,0,0-4.108,5.062l0.728,7.453a6.27,6.27,0,0,1,1.664-4.663,6.421,6.421,0,0,1,4.715-1.646,6.583,6.583,0,0,1,4.923,1.768,6.83,6.83,0,0,1,1.733,4.992V368Zm30.4,0.52a17.966,17.966,0,0,0,6.881-1.4,20.138,20.138,0,0,0,6.154-3.97l-5.408-5.061a12.2,12.2,0,0,1-3.589,2.167,11,11,0,0,1-4.038.78,7.7,7.7,0,0,1-8.459-8.494v-4.576a9.772,9.772,0,0,1,2.045-6.639,7.278,7.278,0,0,1,5.79-2.34,5.914,5.914,0,0,1,4.749,2.08,10.3,10.3,0,0,1,2.115,5.859l0.034,0.381H856v6.067h24.441v-2.357a28.849,28.849,0,0,0-1.716-10.539,14.26,14.26,0,0,0-4.993-6.674,13.351,13.351,0,0,0-7.886-2.305,16.708,16.708,0,0,0-8.373,1.976,12.824,12.824,0,0,0-5.3,5.755,20.862,20.862,0,0,0-1.82,9.117V352.4a18.574,18.574,0,0,0,1.907,8.754,12.715,12.715,0,0,0,5.512,5.5,18.68,18.68,0,0,0,8.7,1.872h0Zm29.709-.347h4.438v-7.939h-2.877a1.771,1.771,0,0,1-1.526-.71,3.391,3.391,0,0,1-.52-2.028V321.545h-8.286V358.64q0,4.715,2.115,7.124t6.656,2.409h0ZM883.7,339.26h16.918v-7.245H883.7v7.245Z"/>
  <path class="cls-1" d="M819.2,169.015a51.751,51.751,0,1,1-51.756,51.751A51.754,51.754,0,0,1,819.2,169.015ZM408.9,220.766a51.756,51.756,0,1,1,51.756,51.751A51.754,51.754,0,0,1,408.9,220.766ZM245.385,22.011c0.15,0,.3,0,0.449.006a253.658,253.658,0,0,1,47.248-11.1c0.8-5.008,1.67-10.028,2.584-14.974-0.451-.136-0.91-0.255-1.36-0.394,1.107-7.274,2.466-14.463,4.023-21.578a122.717,122.717,0,0,1-42.442,7.54q-5.8,0-11.46-.532a281.508,281.508,0,0,1-53.048,5.032A279.4,279.4,0,0,1,13.021-77.976,230.717,230.717,0,0,1,209.565-70.71a195.565,195.565,0,0,1,104.828-30.283c3.257,0,6.487.108,9.7,0.265a340.41,340.41,0,0,1,16.876-30.878c-6.06.394-12.169,0.612-18.329,0.612a280.505,280.505,0,0,1-41.341-3.052c-1.468.03-2.939,0.052-4.414,0.052-118.641,0-217.609-83.991-240.823-195.737A109.224,109.224,0,0,0,117.871-293a110.353,110.353,0,0,0,14.226-.95A391.893,391.893,0,0,1,251.053-190.387a626.348,626.348,0,0,1,160.354-23.034,339.012,339.012,0,0,1,51.971-36.172,380.041,380.041,0,0,1-117.69-21.325c0.025,0.089.053,0.177,0.078,0.265C254.989-273.886,182.378-348.444,182.378-440c0-6.272,1.756-11.445,2.42-17.54,0.125-.417.022,0.229-0.107-0.424A189.374,189.374,0,0,1,241-538.366a126.227,126.227,0,0,0-12.12,54.113,126.013,126.013,0,0,0,17.188,63.678,292.241,292.241,0,0,1,80.288,99.261A245.531,245.531,0,0,1,407.4-335a244.877,244.877,0,0,1,146.26,48.205,352.9,352.9,0,0,1,172-.13A244.909,244.909,0,0,1,872.476-335.54a245.523,245.523,0,0,1,81.068,13.693,292.3,292.3,0,0,1,80.316-99.317,126.145,126.145,0,0,0,17.19-63.715,126.387,126.387,0,0,0-12.12-54.143,189.573,189.573,0,0,1,56.33,80.446c0.43-.193-0.49-0.028-0.06-0.219,0.67,6.1,2.37,11.917,2.37,18.192A169.558,169.558,0,0,1,934.132-271.157c0.025-.089.053-0.176,0.078-0.265a380.06,380.06,0,0,1-117.726,21.336,339.041,339.041,0,0,1,51.987,36.193,626.363,626.363,0,0,1,160.4,23.047,392.112,392.112,0,0,1,119-103.62,110.355,110.355,0,0,0,14.23.951,109.251,109.251,0,0,0,81.83-36.754c-23.22,111.809-122.22,195.848-240.9,195.848-1.48,0-2.95-.022-4.415-0.052a280.535,280.535,0,0,1-41.354,3.054c-6.162,0-12.272-.218-18.334-0.613a341.011,341.011,0,0,1,16.881,30.9c3.218-.157,6.449-0.265,9.707-0.265A195.613,195.613,0,0,1,1070.38-71.1a230.724,230.724,0,0,1,196.6-7.27,279.447,279.447,0,0,1-178.41,64.022,281.591,281.591,0,0,1-53.07-5.035q-5.655.524-11.46,0.532A122.706,122.706,0,0,1,981.584-26.4c1.557,7.119,2.917,14.312,4.024,21.59-0.487.151-.984,0.28-1.473,0.427,0.913,4.93,1.784,9.936,2.585,14.933a253.516,253.516,0,0,1,47.37,11.123c0.15,0,.3-0.006.45-0.006,125.15,0,226.6,101.468,226.6,226.635,0,5-.18,9.962-0.5,14.883a172.682,172.682,0,0,0-100.62-66.1,498.426,498.426,0,0,1-96.53-113.618,205.075,205.075,0,0,1-33.45,2.735A204.991,204.991,0,0,1,990.4,82.348a212.208,212.208,0,0,1-6.6,42.842A241.89,241.89,0,0,1,1168.05,268.523c0.02,1.265.05,2.528,0.05,3.8a239.935,239.935,0,0,1-12.67,77.166c-0.07-.03-0.14-0.062-0.22-0.092a226.632,226.632,0,0,1-62.53,96.294c-2.21,3.11-4.45,6.189-6.75,9.231-55.38,97.957-160.438,164.107-280.982,164.107a321.646,321.646,0,0,1-121.259-23.591,583.391,583.391,0,0,0,183.192-78.909q-4.623-5.223-9.036-10.631a248.761,248.761,0,0,1-204.411-14.075A489.042,489.042,0,0,0,870.11,424.869a483.5,483.5,0,0,1,152.61-82.33,94.539,94.539,0,0,1,28.3-46.1A710.3,710.3,0,0,1,908.642,180.67q-15.57,6.612-31.51,12.5a64.505,64.505,0,0,0-121.689,29.846c0,0.812.031,1.617,0.061,2.421a690.689,690.689,0,0,1-114.824,9.579,690.742,690.742,0,0,1-116.318-9.835c0.024-.72.055-1.439,0.055-2.165a64.51,64.51,0,0,0-121.453-30.309q-15.761-5.82-31.135-12.414A709.987,709.987,0,0,1,228.912,296.625,94.5,94.5,0,0,1,257.2,342.7a483.4,483.4,0,0,1,152.566,82.284,488.989,488.989,0,0,0,216.61,66.914A248.746,248.746,0,0,1,422.03,505.96q-4.413,5.4-9.034,10.625a583.292,583.292,0,0,0,183.137,78.864,321.607,321.607,0,0,1-121.222,23.578c-120.507,0-225.532-66.112-280.9-164.014q-3.441-4.56-6.746-9.225a226.566,226.566,0,0,1-62.511-96.241l-0.221.092a239.7,239.7,0,0,1-12.663-77.122c0-1.269.029-2.531,0.048-3.8A241.8,241.8,0,0,1,297.853,125.194a227.129,227.129,0,0,1-8.289-42.551,204.976,204.976,0,0,1-39.678,3.869,205.189,205.189,0,0,1-33.442-2.733,498,498,0,0,1-96.5,113.554A172.629,172.629,0,0,0,19.359,263.392c-0.319-4.919-.5-9.876-0.5-14.875C18.86,123.421,120.279,22.011,245.385,22.011Z"/>
</svg>
