<?xml version="1.0" encoding="utf-8"?>
	<svg version="1.1" xmlns="http://www.w3.org/2000/svg" xmlns:xlink="http://www.w3.org/1999/xlink" x="0px" y="0px"
		viewBox="164 0 137 91" style="enable-background:new 0 0 458.82 362.56;" xml:space="preserve">
	<style type="text/css">
		.st0{fill:#DB9C32;}
		.st1{fill:#E4BC67;}
		.st2{fill:#E39F31;}
	</style>
	<path class="st0" d="M204.59,52.98c-8.2,0-24.67-16.54-31.16-23.42c2.19-1.03,3.72-3.25,3.72-5.83c0-3.56-2.88-6.44-6.44-6.44
		s-6.44,2.88-6.44,6.44c0,3.56,2.88,6.44,6.44,6.44c0.39,0,0.77-0.04,1.14-0.11l19.7,59.59h39.82V6.44
		C231.38,6.44,223.4,52.98,204.59,52.98z"/>
	<path class="st0" d="M215.11,42.87c0,0-6.51-9.3-10.12-16.48c1.88-0.6,3.25-2.36,3.25-4.44c0-2.57-2.09-4.66-4.66-4.66
		c-2.57,0-4.66,2.09-4.66,4.66c0,2.52,2.01,4.57,4.51,4.65c-0.62,5.1-2.21,15.69-5.11,20.85
		C198.33,47.45,206.72,56.94,215.11,42.87z"/>
	<path class="st1" d="M264.42,47.45c-2.9-5.16-4.48-15.75-5.11-20.85c2.51-0.08,4.51-2.13,4.51-4.65c0-2.57-2.08-4.66-4.66-4.66
		c-2.57,0-4.66,2.09-4.66,4.66c0,2.08,1.37,3.85,3.25,4.44c-3.61,7.19-10.11,16.48-10.11,16.48
		C256.03,56.94,264.42,47.45,264.42,47.45z"/>
	<path class="st1" d="M292.04,17.28c-3.55,0-6.44,2.88-6.44,6.44c0,2.58,1.52,4.8,3.72,5.83c-6.49,6.88-22.95,23.42-31.16,23.42
		c-18.81,0-26.78-46.54-26.78-46.54v83.2h39.82l19.7-59.59c0.37,0.07,0.75,0.11,1.14,0.11c3.56,0,6.44-2.88,6.44-6.44
		C298.48,20.17,295.6,17.28,292.04,17.28z"/>
	<path class="st0" d="M237.82,6.44c0,3.56-2.88,6.44-6.44,6.44c-3.55,0-6.44-2.88-6.44-6.44c0-3.56,2.89-6.44,6.44-6.44
		C234.93,0,237.82,2.88,237.82,6.44z"/>
</svg>
