<svg xmlns="http://www.w3.org/2000/svg" width="963.625" height="629.032"><path data-name="claw 2" d="M961.151 133.176a121.009 121.009 0 01-90.236 93.48c-.089-.23-.188-.457-.279-.687a234.619 234.619 0 01-155 119.608c.108 2.91.175 5.83.175 8.767a233.571 233.571 0 01-13.16 77.506 183.9 183.9 0 01196.483 72.747 277.844 277.844 0 00-192.879-13.776 172.376 172.376 0 0188.69 121.45A260.675 260.675 0 00634.3 524.813a116.841 116.841 0 0154.142 104.212 176.325 176.325 0 00-93.092-82.381q-7.012 9.54-13.654 19.361a234.427 234.427 0 01-199.768 0q-6.63-9.828-13.654-19.361a176.33 176.33 0 00-93.1 82.406 116.843 116.843 0 0154.1-104.224 260.67 260.67 0 00-160.579 87.44 172.363 172.363 0 0188.7-121.436 277.843 277.843 0 00-192.906 13.767 183.894 183.894 0 01196.483-72.747 233.571 233.571 0 01-13.16-77.506c0-2.937.066-5.857.174-8.768a234.617 234.617 0 01-155-119.607c-.091.23-.19.457-.279.687A121.032 121.032 0 0168.455-.008a134.56 134.56 0 00-24.743 65.393c-1.105 11.237-.692 24.582 2.1 40.072 6.435 35.747 22.969 58.124 32 63.887 7.226 4.611 17.547 8.524 32.379 9.452a78.061 78.061 0 0033.308-5.24c.112.187.229.372.342.559a90.119 90.119 0 0047.916-80.2 91 91 0 01-24.546 114.4 353.361 353.361 0 0091.027 83.038 455.361 455.361 0 0165.457-30.11 43 43 0 0081.117-19.899c0-.541-.021-1.078-.041-1.614a461.8 461.8 0 01154.077.171c-.015.48-.036.959-.036 1.443a43 43 0 0080.959 20.2 455.3 455.3 0 0165.143 30.1 353.354 353.354 0 0091.5-83.336 91 91 0 01-24.546-114.4 90.119 90.119 0 0047.916 80.2c.113-.187.23-.372.342-.559a78.061 78.061 0 0033.308 5.24c14.832-.928 25.153-4.841 32.379-9.452 9.031-5.763 25.565-28.14 32-63.887 2.79-15.49 3.2-28.836 2.1-40.074A134.55 134.55 0 00895.17-.015a121.045 121.045 0 0165.981 133.191zM601.312 277.344a34.5 34.5 0 1134.5-34.5 34.5 34.5 0 01-34.5 34.5zm-239 0a34.5 34.5 0 1134.5-34.5 34.5 34.5 0 01-34.5 34.5z" fill="#e63946" fill-rule="evenodd"/></svg>