<svg xmlns="http://www.w3.org/2000/svg" width="999.938" height="1000" viewBox="0 0 999.938 1000">
  <defs>
    <style>
      .cls-1 {
        fill: #e73845;
        fill-rule: evenodd;
      }
    </style>
  </defs>
  <path id="limbs_copy" data-name="limbs copy" class="cls-1" d="M357.1,406.067a41.293,41.293,0,1,1,41.273-41.292A41.282,41.282,0,0,1,357.1,406.067Zm327.19-41.292a41.273,41.273,0,1,1-41.272-41.293A41.282,41.282,0,0,1,684.287,364.775Zm130.4,158.588c-0.12,0-.239,0-0.358-0.005a202.129,202.129,0,0,1-37.678,8.857c-0.637,4-1.332,8-2.06,11.948,0.36,0.109.725,0.2,1.084,0.314-0.882,5.805-1.967,11.541-3.208,17.218a97.813,97.813,0,0,1,33.846-6.016q4.622,0,9.138.424a223.9,223.9,0,0,1,184.534,47.039,183.887,183.887,0,0,1-156.733-5.8,155.889,155.889,0,0,1-83.6,24.163c-2.6,0-5.173-.087-7.739-0.212a271.7,271.7,0,0,1-13.457,24.638c4.832-.314,9.7-0.488,14.616-0.488a223.545,223.545,0,0,1,32.967,2.435c1.171-.024,2.344-0.042,3.52-0.042,94.61,0,173.532,67.017,192.044,156.18a87,87,0,0,0-76.58-28.551,312.577,312.577,0,0,1-94.861-82.632,499.26,499.26,0,0,1-127.874,18.379,270.393,270.393,0,0,1-41.444,28.862A302.891,302.891,0,0,1,734.7,757.092c-0.019-.071-0.042-0.141-0.062-0.212A135.2,135.2,0,0,1,864.93,892.005c0,5-1.4,9.132-1.93,14-0.1.333-.018-0.182,0.086,0.338a151.11,151.11,0,0,1-44.907,64.152,101.138,101.138,0,0,0-4.042-93.986,233.149,233.149,0,0,1-64.025-79.2A196.289,196.289,0,0,1,568.848,769.76a281.269,281.269,0,0,1-137.157.1,196.294,196.294,0,0,1-181.726,27.865,233.273,233.273,0,0,1-64.045,79.246,101.22,101.22,0,0,0-4.043,94.04,151.191,151.191,0,0,1-44.921-64.188c-0.342.154,0.387,0.022,0.044,0.174-0.529-4.866-1.888-9.509-1.888-14.516a135.256,135.256,0,0,1,130.333-135.2c-0.02.071-.043,0.141-0.062,0.211a302.894,302.894,0,0,1,93.88-17.024,270.421,270.421,0,0,1-41.457-28.879A499.208,499.208,0,0,1,189.893,693.2,312.678,312.678,0,0,1,95,775.881a87,87,0,0,0-76.6,28.567C36.917,715.235,115.863,648.18,210.5,648.18c1.177,0,2.35.018,3.521,0.042A223.557,223.557,0,0,1,247,645.785c4.913,0,9.786.174,14.62,0.489a271.728,271.728,0,0,1-13.461-24.652c-2.567.125-5.143,0.212-7.741,0.212A155.905,155.905,0,0,1,156.8,597.657a183.9,183.9,0,0,1-156.781,5.8,223.911,223.911,0,0,1,184.59-47.066q4.515-.418,9.142-0.425a97.8,97.8,0,0,1,33.855,6.02c-1.241-5.68-2.326-11.42-3.208-17.227,0.388-.121.784-0.224,1.174-0.341-0.728-3.934-1.423-7.929-2.061-11.916a202.16,202.16,0,0,1-37.779-8.875c-0.12,0-.238,0-0.358,0-99.8,0-180.7-80.962-180.7-180.833,0-3.992.143-7.949,0.4-11.876A137.7,137.7,0,0,0,85.31,383.663a397.491,397.491,0,0,1,76.976,90.656,163.9,163.9,0,0,1,58.29.9,169.424,169.424,0,0,1,5.266-34.184A192.911,192.911,0,0,1,78.907,326.669c-0.016-1.01-.038-2.017-0.038-3.03a191.5,191.5,0,0,1,10.1-61.571l0.176,0.073a180.9,180.9,0,0,1,49.865-76.834q2.64-3.721,5.381-7.365C188.558,99.781,272.335,47,368.463,47a256.349,256.349,0,0,1,96.7,18.824,465.06,465.06,0,0,0-146.086,62.962q3.687,4.165,7.206,8.482A198.27,198.27,0,0,1,489.287,148.5,389.843,389.843,0,0,0,316.5,201.919a385.486,385.486,0,0,1-121.7,65.693,75.453,75.453,0,0,1-22.568,36.78,566.442,566.442,0,0,1,113.541,92.376q12.416-5.276,25.127-9.975a51.435,51.435,0,0,0,97.041-23.814c0-.648-0.025-1.29-0.048-1.932a552.2,552.2,0,0,1,184.323.2c-0.019.575-.043,1.148-0.043,1.727a51.438,51.438,0,0,0,96.852,24.184q12.568,4.644,24.828,9.9a566.3,566.3,0,0,1,113.969-92.822,75.4,75.4,0,0,1-22.56-36.759A385.4,385.4,0,0,1,683.6,201.832a389.775,389.775,0,0,0-172.736-53.391A198.257,198.257,0,0,1,673.82,137.217q3.519-4.311,7.2-8.478A465,465,0,0,0,534.982,65.813,256.331,256.331,0,0,1,631.65,47c96.1,0,179.85,52.751,224,130.868q2.745,3.638,5.38,7.361a180.8,180.8,0,0,1,49.849,76.79l0.176-.073a191.33,191.33,0,0,1,10.1,61.536c0,1.012-.023,2.02-0.038,3.028A192.838,192.838,0,0,1,772.844,441.032a181.36,181.36,0,0,1,6.611,33.952,163.868,163.868,0,0,1,58.309-.907,397.285,397.285,0,0,1,76.952-90.605,137.655,137.655,0,0,0,80.213-52.709c0.255,3.925.4,7.88,0.4,11.869C995.327,442.447,914.451,523.363,814.685,523.363Z" transform="translate(-0.031 -9)"/>
</svg>
