<svg xmlns="http://www.w3.org/2000/svg" viewBox="0 0 24 24" fill="#6c757d"><path d="M10.7 16.691l-.805-2.152s-1.31 1.434-3.278 1.434c-1.738 0-2.972-1.485-2.972-3.856 0-3.043 1.562-4.129 3.101-4.129 2.215 0 2.922 1.407 3.527 3.211l.805 2.473c.809 2.398 2.32 4.328 6.68 4.328C20.883 18 23 17.059 23 14.59c0-2.004-1.16-3.043-3.328-3.54l-1.613-.343c-1.11-.246-1.438-.691-1.438-1.434 0-.84.684-1.335 1.79-1.335 1.21 0 1.866.445 1.968 1.507l2.52-.297c-.204-2.222-1.766-3.14-4.337-3.14-2.265 0-4.484.844-4.484 3.535 0 1.684.828 2.746 2.922 3.238l1.715.399c1.285.297 1.715.812 1.715 1.53 0 .915-.91 1.286-2.621 1.286-2.547 0-3.606-1.309-4.211-3.113l-.828-2.473c-1.063-3.215-2.75-4.398-6.102-4.398C2.965 6.008 1 8.309 1 12.215 1 15.973 2.965 18 6.492 18c2.848 0 4.207-1.309 4.207-1.309z"/></svg>